<mxfile host="app.diagrams.net" modified="2022-11-02T21:22:46.188Z" agent="5.0 (Macintosh; Intel Mac OS X 10_15_7) AppleWebKit/537.36 (KHTML, like Gecko) Chrome/106.0.0.0 Safari/537.36" etag="palgSt1ufcAhOmLskHml" version="20.5.1" type="github">
  <diagram id="C5RBs43oDa-KdzZeNtuy" name="Page-1">
    <mxGraphModel dx="2824" dy="926" grid="1" gridSize="10" guides="1" tooltips="1" connect="1" arrows="1" fold="1" page="1" pageScale="1" pageWidth="827" pageHeight="1169" math="0" shadow="0">
      <root>
        <mxCell id="WIyWlLk6GJQsqaUBKTNV-0" />
        <mxCell id="WIyWlLk6GJQsqaUBKTNV-1" parent="WIyWlLk6GJQsqaUBKTNV-0" />
        <mxCell id="zbjX_P3OZ4dOYIP-fuS6-56" value="" style="edgeStyle=orthogonalEdgeStyle;rounded=0;orthogonalLoop=1;jettySize=auto;html=1;" edge="1" parent="WIyWlLk6GJQsqaUBKTNV-1" source="zbjX_P3OZ4dOYIP-fuS6-52" target="zbjX_P3OZ4dOYIP-fuS6-55">
          <mxGeometry relative="1" as="geometry" />
        </mxCell>
        <mxCell id="zbjX_P3OZ4dOYIP-fuS6-52" value="获取query向量" style="whiteSpace=wrap;html=1;" vertex="1" parent="WIyWlLk6GJQsqaUBKTNV-1">
          <mxGeometry x="492.25" y="284.5" width="120" height="40" as="geometry" />
        </mxCell>
        <mxCell id="zbjX_P3OZ4dOYIP-fuS6-60" value="" style="edgeStyle=orthogonalEdgeStyle;rounded=0;orthogonalLoop=1;jettySize=auto;html=1;" edge="1" parent="WIyWlLk6GJQsqaUBKTNV-1" source="zbjX_P3OZ4dOYIP-fuS6-55" target="zbjX_P3OZ4dOYIP-fuS6-59">
          <mxGeometry relative="1" as="geometry" />
        </mxCell>
        <mxCell id="zbjX_P3OZ4dOYIP-fuS6-93" style="edgeStyle=orthogonalEdgeStyle;rounded=0;orthogonalLoop=1;jettySize=auto;html=1;entryX=0.5;entryY=0;entryDx=0;entryDy=0;" edge="1" parent="WIyWlLk6GJQsqaUBKTNV-1" source="zbjX_P3OZ4dOYIP-fuS6-57" target="zbjX_P3OZ4dOYIP-fuS6-52">
          <mxGeometry relative="1" as="geometry" />
        </mxCell>
        <mxCell id="zbjX_P3OZ4dOYIP-fuS6-57" value="NN召回" style="rounded=0;whiteSpace=wrap;html=1;" vertex="1" parent="WIyWlLk6GJQsqaUBKTNV-1">
          <mxGeometry x="492.25" y="209.5" width="120" height="40" as="geometry" />
        </mxCell>
        <mxCell id="zbjX_P3OZ4dOYIP-fuS6-114" value="" style="edgeStyle=orthogonalEdgeStyle;rounded=0;orthogonalLoop=1;jettySize=auto;html=1;" edge="1" parent="WIyWlLk6GJQsqaUBKTNV-1" source="zbjX_P3OZ4dOYIP-fuS6-59" target="zbjX_P3OZ4dOYIP-fuS6-113">
          <mxGeometry relative="1" as="geometry" />
        </mxCell>
        <mxCell id="zbjX_P3OZ4dOYIP-fuS6-59" value="同一创意对应多bidword合并，取max_score&lt;br&gt;" style="whiteSpace=wrap;html=1;rounded=0;" vertex="1" parent="WIyWlLk6GJQsqaUBKTNV-1">
          <mxGeometry x="493.5" y="488.5" width="117.5" height="60" as="geometry" />
        </mxCell>
        <mxCell id="zbjX_P3OZ4dOYIP-fuS6-77" value="" style="endArrow=classic;html=1;rounded=0;entryX=0;entryY=0.5;entryDx=0;entryDy=0;" edge="1" parent="WIyWlLk6GJQsqaUBKTNV-1" target="zbjX_P3OZ4dOYIP-fuS6-127">
          <mxGeometry width="50" height="50" relative="1" as="geometry">
            <mxPoint x="241" y="453" as="sourcePoint" />
            <mxPoint x="411" y="569" as="targetPoint" />
          </mxGeometry>
        </mxCell>
        <mxCell id="zbjX_P3OZ4dOYIP-fuS6-169" value="" style="edgeStyle=orthogonalEdgeStyle;rounded=0;orthogonalLoop=1;jettySize=auto;html=1;" edge="1" parent="WIyWlLk6GJQsqaUBKTNV-1" source="zbjX_P3OZ4dOYIP-fuS6-92" target="zbjX_P3OZ4dOYIP-fuS6-97">
          <mxGeometry relative="1" as="geometry" />
        </mxCell>
        <mxCell id="zbjX_P3OZ4dOYIP-fuS6-92" value="tag召回" style="rounded=0;whiteSpace=wrap;html=1;" vertex="1" parent="WIyWlLk6GJQsqaUBKTNV-1">
          <mxGeometry x="691" y="209.5" width="230" height="40.5" as="geometry" />
        </mxCell>
        <mxCell id="zbjX_P3OZ4dOYIP-fuS6-103" style="edgeStyle=orthogonalEdgeStyle;rounded=0;orthogonalLoop=1;jettySize=auto;html=1;entryX=0.5;entryY=0;entryDx=0;entryDy=0;" edge="1" parent="WIyWlLk6GJQsqaUBKTNV-1" source="zbjX_P3OZ4dOYIP-fuS6-97" target="zbjX_P3OZ4dOYIP-fuS6-98">
          <mxGeometry relative="1" as="geometry">
            <Array as="points">
              <mxPoint x="801" y="354" />
              <mxPoint x="716" y="354" />
            </Array>
          </mxGeometry>
        </mxCell>
        <mxCell id="zbjX_P3OZ4dOYIP-fuS6-97" value="query理解&lt;br&gt;类目/关键词/实体" style="whiteSpace=wrap;html=1;" vertex="1" parent="WIyWlLk6GJQsqaUBKTNV-1">
          <mxGeometry x="691" y="274" width="230" height="40" as="geometry" />
        </mxCell>
        <mxCell id="zbjX_P3OZ4dOYIP-fuS6-98" value="类目倒排" style="whiteSpace=wrap;html=1;" vertex="1" parent="WIyWlLk6GJQsqaUBKTNV-1">
          <mxGeometry x="691" y="398.5" width="50" height="115.5" as="geometry" />
        </mxCell>
        <mxCell id="zbjX_P3OZ4dOYIP-fuS6-107" value="" style="edgeStyle=orthogonalEdgeStyle;rounded=0;orthogonalLoop=1;jettySize=auto;html=1;" edge="1" parent="WIyWlLk6GJQsqaUBKTNV-1" source="zbjX_P3OZ4dOYIP-fuS6-100" target="zbjX_P3OZ4dOYIP-fuS6-106">
          <mxGeometry relative="1" as="geometry" />
        </mxCell>
        <mxCell id="zbjX_P3OZ4dOYIP-fuS6-100" value="……" style="whiteSpace=wrap;html=1;" vertex="1" parent="WIyWlLk6GJQsqaUBKTNV-1">
          <mxGeometry x="771" y="398.5" width="50" height="115.5" as="geometry" />
        </mxCell>
        <mxCell id="zbjX_P3OZ4dOYIP-fuS6-101" value="实体倒排" style="whiteSpace=wrap;html=1;" vertex="1" parent="WIyWlLk6GJQsqaUBKTNV-1">
          <mxGeometry x="861" y="398.5" width="50" height="115.5" as="geometry" />
        </mxCell>
        <mxCell id="zbjX_P3OZ4dOYIP-fuS6-111" value="" style="endArrow=classic;html=1;rounded=0;entryX=0.5;entryY=0;entryDx=0;entryDy=0;" edge="1" parent="WIyWlLk6GJQsqaUBKTNV-1" target="zbjX_P3OZ4dOYIP-fuS6-101">
          <mxGeometry width="50" height="50" relative="1" as="geometry">
            <mxPoint x="801" y="354" as="sourcePoint" />
            <mxPoint x="881" y="384" as="targetPoint" />
            <Array as="points">
              <mxPoint x="886" y="354" />
            </Array>
          </mxGeometry>
        </mxCell>
        <mxCell id="zbjX_P3OZ4dOYIP-fuS6-112" value="" style="endArrow=classic;html=1;rounded=0;entryX=0.5;entryY=0;entryDx=0;entryDy=0;" edge="1" parent="WIyWlLk6GJQsqaUBKTNV-1" target="zbjX_P3OZ4dOYIP-fuS6-100">
          <mxGeometry width="50" height="50" relative="1" as="geometry">
            <mxPoint x="796" y="354" as="sourcePoint" />
            <mxPoint x="671" y="404" as="targetPoint" />
          </mxGeometry>
        </mxCell>
        <mxCell id="zbjX_P3OZ4dOYIP-fuS6-113" value="query,ad,score" style="whiteSpace=wrap;html=1;rounded=0;" vertex="1" parent="WIyWlLk6GJQsqaUBKTNV-1">
          <mxGeometry x="491" y="589.5" width="120" height="55" as="geometry" />
        </mxCell>
        <mxCell id="zbjX_P3OZ4dOYIP-fuS6-117" value="" style="endArrow=none;html=1;rounded=0;exitX=0.5;exitY=1;exitDx=0;exitDy=0;" edge="1" parent="WIyWlLk6GJQsqaUBKTNV-1" source="zbjX_P3OZ4dOYIP-fuS6-98">
          <mxGeometry width="50" height="50" relative="1" as="geometry">
            <mxPoint x="621" y="434" as="sourcePoint" />
            <mxPoint x="801" y="554" as="targetPoint" />
            <Array as="points">
              <mxPoint x="716" y="554" />
            </Array>
          </mxGeometry>
        </mxCell>
        <mxCell id="zbjX_P3OZ4dOYIP-fuS6-118" value="" style="endArrow=none;html=1;rounded=0;exitX=0.5;exitY=1;exitDx=0;exitDy=0;" edge="1" parent="WIyWlLk6GJQsqaUBKTNV-1" source="zbjX_P3OZ4dOYIP-fuS6-101">
          <mxGeometry width="50" height="50" relative="1" as="geometry">
            <mxPoint x="726" y="468.5" as="sourcePoint" />
            <mxPoint x="801" y="554" as="targetPoint" />
            <Array as="points">
              <mxPoint x="886" y="554" />
            </Array>
          </mxGeometry>
        </mxCell>
        <mxCell id="zbjX_P3OZ4dOYIP-fuS6-121" style="edgeStyle=orthogonalEdgeStyle;rounded=0;orthogonalLoop=1;jettySize=auto;html=1;exitX=0.5;exitY=1;exitDx=0;exitDy=0;" edge="1" parent="WIyWlLk6GJQsqaUBKTNV-1">
          <mxGeometry relative="1" as="geometry">
            <mxPoint x="351" y="329.5" as="sourcePoint" />
            <mxPoint x="351" y="329.5" as="targetPoint" />
          </mxGeometry>
        </mxCell>
        <mxCell id="zbjX_P3OZ4dOYIP-fuS6-123" style="edgeStyle=orthogonalEdgeStyle;rounded=0;orthogonalLoop=1;jettySize=auto;html=1;exitX=0.5;exitY=1;exitDx=0;exitDy=0;" edge="1" parent="WIyWlLk6GJQsqaUBKTNV-1">
          <mxGeometry relative="1" as="geometry">
            <mxPoint x="351" y="329.5" as="sourcePoint" />
            <mxPoint x="351" y="329.5" as="targetPoint" />
          </mxGeometry>
        </mxCell>
        <mxCell id="zbjX_P3OZ4dOYIP-fuS6-125" value="" style="edgeStyle=orthogonalEdgeStyle;rounded=0;orthogonalLoop=1;jettySize=auto;html=1;" edge="1" parent="WIyWlLk6GJQsqaUBKTNV-1" source="zbjX_P3OZ4dOYIP-fuS6-124" target="zbjX_P3OZ4dOYIP-fuS6-52">
          <mxGeometry relative="1" as="geometry" />
        </mxCell>
        <mxCell id="zbjX_P3OZ4dOYIP-fuS6-124" value="query塔模型" style="whiteSpace=wrap;html=1;" vertex="1" parent="WIyWlLk6GJQsqaUBKTNV-1">
          <mxGeometry x="271" y="284.5" width="140" height="40" as="geometry" />
        </mxCell>
        <mxCell id="zbjX_P3OZ4dOYIP-fuS6-131" value="" style="endArrow=classic;html=1;rounded=0;exitX=0.5;exitY=1;exitDx=0;exitDy=0;entryX=0.5;entryY=0;entryDx=0;entryDy=0;" edge="1" parent="WIyWlLk6GJQsqaUBKTNV-1" source="zbjX_P3OZ4dOYIP-fuS6-113" target="zbjX_P3OZ4dOYIP-fuS6-129">
          <mxGeometry width="50" height="50" relative="1" as="geometry">
            <mxPoint x="691" y="744.5" as="sourcePoint" />
            <mxPoint x="551" y="684.5" as="targetPoint" />
          </mxGeometry>
        </mxCell>
        <mxCell id="zbjX_P3OZ4dOYIP-fuS6-132" value="" style="endArrow=classic;html=1;rounded=0;exitX=0.5;exitY=1;exitDx=0;exitDy=0;entryX=0.5;entryY=0;entryDx=0;entryDy=0;" edge="1" parent="WIyWlLk6GJQsqaUBKTNV-1" target="zbjX_P3OZ4dOYIP-fuS6-130">
          <mxGeometry width="50" height="50" relative="1" as="geometry">
            <mxPoint x="795.17" y="654" as="sourcePoint" />
            <mxPoint x="796.5161538461538" y="689" as="targetPoint" />
          </mxGeometry>
        </mxCell>
        <mxCell id="zbjX_P3OZ4dOYIP-fuS6-139" value="线上提词智能扩量服务" style="swimlane;" vertex="1" parent="WIyWlLk6GJQsqaUBKTNV-1">
          <mxGeometry x="190" y="130" width="870" height="910" as="geometry" />
        </mxCell>
        <mxCell id="zbjX_P3OZ4dOYIP-fuS6-133" value="多路融合&amp;amp;过滤&amp;amp;截断" style="whiteSpace=wrap;html=1;rounded=0;" vertex="1" parent="zbjX_P3OZ4dOYIP-fuS6-139">
          <mxGeometry x="391" y="730" width="160" height="40" as="geometry" />
        </mxCell>
        <mxCell id="zbjX_P3OZ4dOYIP-fuS6-173" value="query" style="rounded=0;whiteSpace=wrap;html=1;" vertex="1" parent="zbjX_P3OZ4dOYIP-fuS6-139">
          <mxGeometry x="413.5" y="30" width="120" height="30" as="geometry" />
        </mxCell>
        <mxCell id="zbjX_P3OZ4dOYIP-fuS6-176" value="" style="edgeStyle=orthogonalEdgeStyle;rounded=0;orthogonalLoop=1;jettySize=auto;html=1;" edge="1" parent="zbjX_P3OZ4dOYIP-fuS6-139" source="zbjX_P3OZ4dOYIP-fuS6-69" target="zbjX_P3OZ4dOYIP-fuS6-62">
          <mxGeometry relative="1" as="geometry" />
        </mxCell>
        <mxCell id="zbjX_P3OZ4dOYIP-fuS6-69" value="定时拉取ad-提词数据&lt;br&gt;&amp;amp;更新索引" style="whiteSpace=wrap;html=1;" vertex="1" parent="zbjX_P3OZ4dOYIP-fuS6-139">
          <mxGeometry x="71" y="500" width="140" height="60" as="geometry" />
        </mxCell>
        <mxCell id="zbjX_P3OZ4dOYIP-fuS6-62" value="bidword向量索引&lt;br&gt;(87w+)" style="rounded=0;whiteSpace=wrap;html=1;" vertex="1" parent="zbjX_P3OZ4dOYIP-fuS6-139">
          <mxGeometry x="71" y="390" width="140" height="50" as="geometry" />
        </mxCell>
        <mxCell id="zbjX_P3OZ4dOYIP-fuS6-127" value="bidword-ad倒排" style="rounded=0;whiteSpace=wrap;html=1;" vertex="1" parent="zbjX_P3OZ4dOYIP-fuS6-139">
          <mxGeometry x="71" y="297.5" width="140" height="50" as="geometry" />
        </mxCell>
        <mxCell id="zbjX_P3OZ4dOYIP-fuS6-63" value="ad向量索引&lt;br&gt;（4w+)" style="rounded=0;whiteSpace=wrap;html=1;" vertex="1" parent="zbjX_P3OZ4dOYIP-fuS6-139">
          <mxGeometry x="71" y="210" width="140" height="50" as="geometry" />
        </mxCell>
        <mxCell id="zbjX_P3OZ4dOYIP-fuS6-96" style="edgeStyle=orthogonalEdgeStyle;rounded=0;orthogonalLoop=1;jettySize=auto;html=1;entryX=0;entryY=0.5;entryDx=0;entryDy=0;" edge="1" parent="zbjX_P3OZ4dOYIP-fuS6-139" source="zbjX_P3OZ4dOYIP-fuS6-69" target="zbjX_P3OZ4dOYIP-fuS6-63">
          <mxGeometry relative="1" as="geometry">
            <Array as="points">
              <mxPoint x="141" y="470" />
              <mxPoint x="41" y="470" />
              <mxPoint x="41" y="235" />
            </Array>
          </mxGeometry>
        </mxCell>
        <mxCell id="zbjX_P3OZ4dOYIP-fuS6-129" value="反馈调节(score)" style="whiteSpace=wrap;html=1;rounded=0;" vertex="1" parent="zbjX_P3OZ4dOYIP-fuS6-139">
          <mxGeometry x="301" y="610" width="120" height="60" as="geometry" />
        </mxCell>
        <mxCell id="zbjX_P3OZ4dOYIP-fuS6-134" style="edgeStyle=orthogonalEdgeStyle;rounded=0;orthogonalLoop=1;jettySize=auto;html=1;entryX=0.5;entryY=0;entryDx=0;entryDy=0;" edge="1" parent="zbjX_P3OZ4dOYIP-fuS6-139" source="zbjX_P3OZ4dOYIP-fuS6-129" target="zbjX_P3OZ4dOYIP-fuS6-133">
          <mxGeometry relative="1" as="geometry">
            <Array as="points">
              <mxPoint x="351" y="700" />
              <mxPoint x="471" y="700" />
            </Array>
          </mxGeometry>
        </mxCell>
        <mxCell id="zbjX_P3OZ4dOYIP-fuS6-55" value="query向量检索" style="rounded=0;whiteSpace=wrap;html=1;" vertex="1" parent="zbjX_P3OZ4dOYIP-fuS6-139">
          <mxGeometry x="293.5" y="260" width="120" height="37.5" as="geometry" />
        </mxCell>
        <mxCell id="zbjX_P3OZ4dOYIP-fuS6-65" value="" style="endArrow=classic;html=1;rounded=0;exitX=0;exitY=0.5;exitDx=0;exitDy=0;entryX=1;entryY=0.5;entryDx=0;entryDy=0;" edge="1" parent="zbjX_P3OZ4dOYIP-fuS6-139" source="zbjX_P3OZ4dOYIP-fuS6-55" target="zbjX_P3OZ4dOYIP-fuS6-63">
          <mxGeometry width="50" height="50" relative="1" as="geometry">
            <mxPoint x="303.5" y="287.75" as="sourcePoint" />
            <mxPoint x="231" y="189" as="targetPoint" />
          </mxGeometry>
        </mxCell>
        <mxCell id="zbjX_P3OZ4dOYIP-fuS6-66" value="" style="endArrow=classic;html=1;rounded=0;entryX=1;entryY=0.5;entryDx=0;entryDy=0;exitX=0;exitY=0.5;exitDx=0;exitDy=0;" edge="1" parent="zbjX_P3OZ4dOYIP-fuS6-139" source="zbjX_P3OZ4dOYIP-fuS6-55" target="zbjX_P3OZ4dOYIP-fuS6-62">
          <mxGeometry width="50" height="50" relative="1" as="geometry">
            <mxPoint x="291" y="279" as="sourcePoint" />
            <mxPoint x="231" y="287.75" as="targetPoint" />
          </mxGeometry>
        </mxCell>
        <mxCell id="zbjX_P3OZ4dOYIP-fuS6-183" value="" style="endArrow=classic;html=1;rounded=0;exitX=0;exitY=0.5;exitDx=0;exitDy=0;entryX=1;entryY=0.5;entryDx=0;entryDy=0;" edge="1" parent="zbjX_P3OZ4dOYIP-fuS6-139" source="zbjX_P3OZ4dOYIP-fuS6-55" target="zbjX_P3OZ4dOYIP-fuS6-127">
          <mxGeometry width="50" height="50" relative="1" as="geometry">
            <mxPoint x="303.5" y="288.75" as="sourcePoint" />
            <mxPoint x="221" y="245" as="targetPoint" />
          </mxGeometry>
        </mxCell>
        <mxCell id="zbjX_P3OZ4dOYIP-fuS6-185" style="edgeStyle=orthogonalEdgeStyle;rounded=0;orthogonalLoop=1;jettySize=auto;html=1;entryX=0.5;entryY=1;entryDx=0;entryDy=0;" edge="1" parent="zbjX_P3OZ4dOYIP-fuS6-139" source="zbjX_P3OZ4dOYIP-fuS6-184" target="zbjX_P3OZ4dOYIP-fuS6-69">
          <mxGeometry relative="1" as="geometry" />
        </mxCell>
        <mxCell id="zbjX_P3OZ4dOYIP-fuS6-184" value="营销平台广告库" style="shape=cylinder3;whiteSpace=wrap;html=1;boundedLbl=1;backgroundOutline=1;size=15;" vertex="1" parent="zbjX_P3OZ4dOYIP-fuS6-139">
          <mxGeometry x="391" y="820" width="120" height="80" as="geometry" />
        </mxCell>
        <mxCell id="zbjX_P3OZ4dOYIP-fuS6-130" value="反馈调节(概率）" style="whiteSpace=wrap;html=1;rounded=0;" vertex="1" parent="zbjX_P3OZ4dOYIP-fuS6-139">
          <mxGeometry x="546" y="610" width="120" height="60" as="geometry" />
        </mxCell>
        <mxCell id="zbjX_P3OZ4dOYIP-fuS6-135" style="edgeStyle=orthogonalEdgeStyle;rounded=0;orthogonalLoop=1;jettySize=auto;html=1;entryX=0.5;entryY=0;entryDx=0;entryDy=0;" edge="1" parent="zbjX_P3OZ4dOYIP-fuS6-139" source="zbjX_P3OZ4dOYIP-fuS6-130" target="zbjX_P3OZ4dOYIP-fuS6-133">
          <mxGeometry relative="1" as="geometry">
            <Array as="points">
              <mxPoint x="594" y="700" />
              <mxPoint x="471" y="700" />
            </Array>
          </mxGeometry>
        </mxCell>
        <mxCell id="zbjX_P3OZ4dOYIP-fuS6-222" value="定时拉取ad信息&lt;br&gt;&amp;amp;更新索引" style="whiteSpace=wrap;html=1;" vertex="1" parent="zbjX_P3OZ4dOYIP-fuS6-139">
          <mxGeometry x="700" y="490" width="140" height="60" as="geometry" />
        </mxCell>
        <mxCell id="zbjX_P3OZ4dOYIP-fuS6-186" value="" style="endArrow=classic;html=1;rounded=0;exitX=1;exitY=0.5;exitDx=0;exitDy=0;exitPerimeter=0;entryX=0.581;entryY=1.019;entryDx=0;entryDy=0;entryPerimeter=0;" edge="1" parent="zbjX_P3OZ4dOYIP-fuS6-139" source="zbjX_P3OZ4dOYIP-fuS6-184" target="zbjX_P3OZ4dOYIP-fuS6-222">
          <mxGeometry width="50" height="50" relative="1" as="geometry">
            <mxPoint x="541" y="820" as="sourcePoint" />
            <mxPoint x="751" y="560" as="targetPoint" />
            <Array as="points">
              <mxPoint x="780" y="860" />
            </Array>
          </mxGeometry>
        </mxCell>
        <mxCell id="zbjX_P3OZ4dOYIP-fuS6-106" value="query,ad,index_name" style="whiteSpace=wrap;html=1;" vertex="1" parent="zbjX_P3OZ4dOYIP-fuS6-139">
          <mxGeometry x="546" y="469" width="120" height="55" as="geometry" />
        </mxCell>
        <mxCell id="zbjX_P3OZ4dOYIP-fuS6-226" value="" style="swimlane;startSize=0;fillColor=#FF6666;strokeColor=#FF3333;" vertex="1" parent="zbjX_P3OZ4dOYIP-fuS6-139">
          <mxGeometry x="20" y="140" width="440" height="430" as="geometry" />
        </mxCell>
        <mxCell id="zbjX_P3OZ4dOYIP-fuS6-140" value="离线环境" style="swimlane;" vertex="1" parent="WIyWlLk6GJQsqaUBKTNV-1">
          <mxGeometry x="-340" y="130" width="530" height="910" as="geometry" />
        </mxCell>
        <mxCell id="zbjX_P3OZ4dOYIP-fuS6-1" value="dnn" style="whiteSpace=wrap;html=1;aspect=fixed;" vertex="1" parent="zbjX_P3OZ4dOYIP-fuS6-140">
          <mxGeometry x="64" y="224.5" width="60" height="60" as="geometry" />
        </mxCell>
        <mxCell id="zbjX_P3OZ4dOYIP-fuS6-2" value="ad" style="text;html=1;strokeColor=none;fillColor=none;align=center;verticalAlign=middle;whiteSpace=wrap;rounded=0;" vertex="1" parent="zbjX_P3OZ4dOYIP-fuS6-140">
          <mxGeometry x="64" y="284.5" width="60" height="30" as="geometry" />
        </mxCell>
        <mxCell id="zbjX_P3OZ4dOYIP-fuS6-3" value="dnn" style="whiteSpace=wrap;html=1;aspect=fixed;" vertex="1" parent="zbjX_P3OZ4dOYIP-fuS6-140">
          <mxGeometry x="144" y="224.5" width="60" height="60" as="geometry" />
        </mxCell>
        <mxCell id="zbjX_P3OZ4dOYIP-fuS6-5" value="dnn" style="whiteSpace=wrap;html=1;aspect=fixed;" vertex="1" parent="zbjX_P3OZ4dOYIP-fuS6-140">
          <mxGeometry x="244" y="224.5" width="60" height="60" as="geometry" />
        </mxCell>
        <mxCell id="zbjX_P3OZ4dOYIP-fuS6-6" value="bidword" style="text;html=1;strokeColor=none;fillColor=none;align=center;verticalAlign=middle;whiteSpace=wrap;rounded=0;" vertex="1" parent="zbjX_P3OZ4dOYIP-fuS6-140">
          <mxGeometry x="244" y="284.5" width="60" height="30" as="geometry" />
        </mxCell>
        <mxCell id="zbjX_P3OZ4dOYIP-fuS6-7" value="query" style="text;html=1;strokeColor=none;fillColor=none;align=center;verticalAlign=middle;whiteSpace=wrap;rounded=0;" vertex="1" parent="zbjX_P3OZ4dOYIP-fuS6-140">
          <mxGeometry x="144" y="284.5" width="60" height="30" as="geometry" />
        </mxCell>
        <mxCell id="zbjX_P3OZ4dOYIP-fuS6-8" value="" style="ellipse;whiteSpace=wrap;html=1;aspect=fixed;" vertex="1" parent="zbjX_P3OZ4dOYIP-fuS6-140">
          <mxGeometry x="124" y="174.5" width="20" height="20" as="geometry" />
        </mxCell>
        <mxCell id="zbjX_P3OZ4dOYIP-fuS6-14" value="" style="ellipse;whiteSpace=wrap;html=1;aspect=fixed;" vertex="1" parent="zbjX_P3OZ4dOYIP-fuS6-140">
          <mxGeometry x="214" y="174.5" width="20" height="20" as="geometry" />
        </mxCell>
        <mxCell id="zbjX_P3OZ4dOYIP-fuS6-19" value="total_score" style="rounded=0;whiteSpace=wrap;html=1;" vertex="1" parent="zbjX_P3OZ4dOYIP-fuS6-140">
          <mxGeometry x="134" y="114.5" width="100" height="30" as="geometry" />
        </mxCell>
        <mxCell id="zbjX_P3OZ4dOYIP-fuS6-22" value="cvr" style="text;html=1;strokeColor=none;fillColor=none;align=center;verticalAlign=middle;whiteSpace=wrap;rounded=0;" vertex="1" parent="zbjX_P3OZ4dOYIP-fuS6-140">
          <mxGeometry x="84" y="169.5" width="60" height="30" as="geometry" />
        </mxCell>
        <mxCell id="zbjX_P3OZ4dOYIP-fuS6-23" value="sim_score" style="text;html=1;strokeColor=none;fillColor=none;align=center;verticalAlign=middle;whiteSpace=wrap;rounded=0;" vertex="1" parent="zbjX_P3OZ4dOYIP-fuS6-140">
          <mxGeometry x="244" y="169.5" width="60" height="30" as="geometry" />
        </mxCell>
        <mxCell id="zbjX_P3OZ4dOYIP-fuS6-164" value="" style="swimlane;startSize=0;" vertex="1" parent="zbjX_P3OZ4dOYIP-fuS6-140">
          <mxGeometry x="27" y="100" width="300" height="230" as="geometry" />
        </mxCell>
        <mxCell id="zbjX_P3OZ4dOYIP-fuS6-179" style="edgeStyle=orthogonalEdgeStyle;rounded=0;orthogonalLoop=1;jettySize=auto;html=1;entryX=0.5;entryY=1;entryDx=0;entryDy=0;" edge="1" parent="zbjX_P3OZ4dOYIP-fuS6-140" source="zbjX_P3OZ4dOYIP-fuS6-33" target="zbjX_P3OZ4dOYIP-fuS6-164">
          <mxGeometry relative="1" as="geometry">
            <Array as="points">
              <mxPoint x="87" y="390" />
              <mxPoint x="177" y="390" />
            </Array>
          </mxGeometry>
        </mxCell>
        <mxCell id="zbjX_P3OZ4dOYIP-fuS6-33" value="线上效果日志&lt;br&gt;（曝光/点击/转化/计费）" style="shape=cylinder3;whiteSpace=wrap;html=1;boundedLbl=1;backgroundOutline=1;size=15;" vertex="1" parent="zbjX_P3OZ4dOYIP-fuS6-140">
          <mxGeometry x="27" y="460" width="120" height="80" as="geometry" />
        </mxCell>
        <mxCell id="zbjX_P3OZ4dOYIP-fuS6-180" style="edgeStyle=orthogonalEdgeStyle;rounded=0;orthogonalLoop=1;jettySize=auto;html=1;entryX=0.5;entryY=1;entryDx=0;entryDy=0;" edge="1" parent="zbjX_P3OZ4dOYIP-fuS6-140" source="zbjX_P3OZ4dOYIP-fuS6-34" target="zbjX_P3OZ4dOYIP-fuS6-164">
          <mxGeometry relative="1" as="geometry">
            <Array as="points">
              <mxPoint x="247" y="390" />
              <mxPoint x="177" y="390" />
            </Array>
          </mxGeometry>
        </mxCell>
        <mxCell id="zbjX_P3OZ4dOYIP-fuS6-219" style="edgeStyle=orthogonalEdgeStyle;rounded=0;orthogonalLoop=1;jettySize=auto;html=1;entryX=0.5;entryY=1;entryDx=0;entryDy=0;" edge="1" parent="zbjX_P3OZ4dOYIP-fuS6-140" source="zbjX_P3OZ4dOYIP-fuS6-34" target="zbjX_P3OZ4dOYIP-fuS6-194">
          <mxGeometry relative="1" as="geometry">
            <Array as="points">
              <mxPoint x="247" y="390" />
              <mxPoint x="435" y="390" />
            </Array>
          </mxGeometry>
        </mxCell>
        <mxCell id="zbjX_P3OZ4dOYIP-fuS6-34" value="营销平台广告库" style="shape=cylinder3;whiteSpace=wrap;html=1;boundedLbl=1;backgroundOutline=1;size=15;" vertex="1" parent="zbjX_P3OZ4dOYIP-fuS6-140">
          <mxGeometry x="187" y="460" width="120" height="80" as="geometry" />
        </mxCell>
        <mxCell id="zbjX_P3OZ4dOYIP-fuS6-36" value="分支路数据统计" style="whiteSpace=wrap;html=1;rounded=0;" vertex="1" parent="zbjX_P3OZ4dOYIP-fuS6-140">
          <mxGeometry x="97" y="590" width="120" height="60" as="geometry" />
        </mxCell>
        <mxCell id="zbjX_P3OZ4dOYIP-fuS6-37" value="" style="endArrow=classic;html=1;rounded=0;entryX=0.5;entryY=0;entryDx=0;entryDy=0;exitX=0.5;exitY=1;exitDx=0;exitDy=0;exitPerimeter=0;" edge="1" parent="zbjX_P3OZ4dOYIP-fuS6-140" source="zbjX_P3OZ4dOYIP-fuS6-33" target="zbjX_P3OZ4dOYIP-fuS6-36">
          <mxGeometry width="50" height="50" relative="1" as="geometry">
            <mxPoint x="87" y="560" as="sourcePoint" />
            <mxPoint x="-128" y="710" as="targetPoint" />
          </mxGeometry>
        </mxCell>
        <mxCell id="zbjX_P3OZ4dOYIP-fuS6-39" value="" style="endArrow=classic;html=1;rounded=0;entryX=0.5;entryY=0;entryDx=0;entryDy=0;exitX=0.5;exitY=1;exitDx=0;exitDy=0;exitPerimeter=0;" edge="1" parent="zbjX_P3OZ4dOYIP-fuS6-140" source="zbjX_P3OZ4dOYIP-fuS6-34" target="zbjX_P3OZ4dOYIP-fuS6-36">
          <mxGeometry width="50" height="50" relative="1" as="geometry">
            <mxPoint x="97" y="550" as="sourcePoint" />
            <mxPoint x="167" y="610" as="targetPoint" />
          </mxGeometry>
        </mxCell>
        <mxCell id="zbjX_P3OZ4dOYIP-fuS6-40" value="pid调节扩量阈值" style="whiteSpace=wrap;html=1;rounded=0;" vertex="1" parent="zbjX_P3OZ4dOYIP-fuS6-140">
          <mxGeometry x="97" y="680" width="120" height="60" as="geometry" />
        </mxCell>
        <mxCell id="zbjX_P3OZ4dOYIP-fuS6-41" value="" style="edgeStyle=orthogonalEdgeStyle;rounded=0;orthogonalLoop=1;jettySize=auto;html=1;" edge="1" parent="zbjX_P3OZ4dOYIP-fuS6-140" source="zbjX_P3OZ4dOYIP-fuS6-36" target="zbjX_P3OZ4dOYIP-fuS6-40">
          <mxGeometry relative="1" as="geometry" />
        </mxCell>
        <mxCell id="zbjX_P3OZ4dOYIP-fuS6-43" value="计算ad-支路下阈值" style="whiteSpace=wrap;html=1;rounded=0;" vertex="1" parent="zbjX_P3OZ4dOYIP-fuS6-140">
          <mxGeometry x="97" y="772.5" width="120" height="47.5" as="geometry" />
        </mxCell>
        <mxCell id="zbjX_P3OZ4dOYIP-fuS6-44" value="" style="edgeStyle=orthogonalEdgeStyle;rounded=0;orthogonalLoop=1;jettySize=auto;html=1;" edge="1" parent="zbjX_P3OZ4dOYIP-fuS6-140" source="zbjX_P3OZ4dOYIP-fuS6-40" target="zbjX_P3OZ4dOYIP-fuS6-43">
          <mxGeometry relative="1" as="geometry" />
        </mxCell>
        <mxCell id="zbjX_P3OZ4dOYIP-fuS6-46" style="edgeStyle=orthogonalEdgeStyle;rounded=0;orthogonalLoop=1;jettySize=auto;html=1;entryX=1;entryY=0.5;entryDx=0;entryDy=0;" edge="1" parent="zbjX_P3OZ4dOYIP-fuS6-140" source="zbjX_P3OZ4dOYIP-fuS6-45" target="zbjX_P3OZ4dOYIP-fuS6-40">
          <mxGeometry relative="1" as="geometry" />
        </mxCell>
        <mxCell id="zbjX_P3OZ4dOYIP-fuS6-45" value="pid初时参数可以配置" style="whiteSpace=wrap;html=1;rounded=0;" vertex="1" parent="zbjX_P3OZ4dOYIP-fuS6-140">
          <mxGeometry x="267" y="680" width="120" height="60" as="geometry" />
        </mxCell>
        <mxCell id="zbjX_P3OZ4dOYIP-fuS6-189" value="" style="edgeStyle=orthogonalEdgeStyle;rounded=0;orthogonalLoop=1;jettySize=auto;html=1;" edge="1" parent="zbjX_P3OZ4dOYIP-fuS6-140" source="zbjX_P3OZ4dOYIP-fuS6-187" target="zbjX_P3OZ4dOYIP-fuS6-36">
          <mxGeometry relative="1" as="geometry" />
        </mxCell>
        <mxCell id="zbjX_P3OZ4dOYIP-fuS6-187" value="app白名单" style="whiteSpace=wrap;html=1;rounded=0;" vertex="1" parent="zbjX_P3OZ4dOYIP-fuS6-140">
          <mxGeometry x="267" y="590" width="123" height="60" as="geometry" />
        </mxCell>
        <mxCell id="zbjX_P3OZ4dOYIP-fuS6-194" value="" style="swimlane;startSize=0;" vertex="1" parent="zbjX_P3OZ4dOYIP-fuS6-140">
          <mxGeometry x="350" y="100" width="170" height="230" as="geometry" />
        </mxCell>
        <mxCell id="zbjX_P3OZ4dOYIP-fuS6-195" value="query/ad" style="text;html=1;strokeColor=none;fillColor=none;align=center;verticalAlign=middle;whiteSpace=wrap;rounded=0;" vertex="1" parent="zbjX_P3OZ4dOYIP-fuS6-194">
          <mxGeometry x="60" y="184.5" width="60" height="30" as="geometry" />
        </mxCell>
        <mxCell id="zbjX_P3OZ4dOYIP-fuS6-196" value="transformer" style="whiteSpace=wrap;html=1;aspect=fixed;" vertex="1" parent="zbjX_P3OZ4dOYIP-fuS6-194">
          <mxGeometry x="45" y="104.5" width="80" height="80" as="geometry" />
        </mxCell>
        <mxCell id="zbjX_P3OZ4dOYIP-fuS6-210" value="" style="edgeStyle=orthogonalEdgeStyle;rounded=0;orthogonalLoop=1;jettySize=auto;html=1;" edge="1" parent="zbjX_P3OZ4dOYIP-fuS6-194" source="zbjX_P3OZ4dOYIP-fuS6-197" target="zbjX_P3OZ4dOYIP-fuS6-205">
          <mxGeometry relative="1" as="geometry" />
        </mxCell>
        <mxCell id="zbjX_P3OZ4dOYIP-fuS6-197" value="" style="ellipse;whiteSpace=wrap;html=1;aspect=fixed;" vertex="1" parent="zbjX_P3OZ4dOYIP-fuS6-194">
          <mxGeometry x="75" y="60" width="20" height="20" as="geometry" />
        </mxCell>
        <mxCell id="zbjX_P3OZ4dOYIP-fuS6-198" value="" style="endArrow=classic;html=1;rounded=0;exitX=0.5;exitY=0;exitDx=0;exitDy=0;" edge="1" parent="zbjX_P3OZ4dOYIP-fuS6-194" source="zbjX_P3OZ4dOYIP-fuS6-196">
          <mxGeometry width="50" height="50" relative="1" as="geometry">
            <mxPoint x="90" y="105" as="sourcePoint" />
            <mxPoint x="85" y="80" as="targetPoint" />
          </mxGeometry>
        </mxCell>
        <mxCell id="zbjX_P3OZ4dOYIP-fuS6-205" value="类目" style="rounded=0;whiteSpace=wrap;html=1;" vertex="1" parent="zbjX_P3OZ4dOYIP-fuS6-194">
          <mxGeometry x="35" y="10" width="100" height="30" as="geometry" />
        </mxCell>
        <mxCell id="zbjX_P3OZ4dOYIP-fuS6-213" value="" style="endArrow=classic;html=1;rounded=0;exitX=0.5;exitY=0;exitDx=0;exitDy=0;" edge="1" parent="zbjX_P3OZ4dOYIP-fuS6-140" source="zbjX_P3OZ4dOYIP-fuS6-1">
          <mxGeometry width="50" height="50" relative="1" as="geometry">
            <mxPoint x="194" y="154.5" as="sourcePoint" />
            <mxPoint x="130" y="190" as="targetPoint" />
          </mxGeometry>
        </mxCell>
        <mxCell id="zbjX_P3OZ4dOYIP-fuS6-215" value="" style="endArrow=classic;html=1;rounded=0;entryX=0;entryY=1;entryDx=0;entryDy=0;exitX=0.5;exitY=0;exitDx=0;exitDy=0;" edge="1" parent="zbjX_P3OZ4dOYIP-fuS6-140" source="zbjX_P3OZ4dOYIP-fuS6-3" target="zbjX_P3OZ4dOYIP-fuS6-14">
          <mxGeometry width="50" height="50" relative="1" as="geometry">
            <mxPoint x="190" y="230" as="sourcePoint" />
            <mxPoint x="150" y="200" as="targetPoint" />
          </mxGeometry>
        </mxCell>
        <mxCell id="zbjX_P3OZ4dOYIP-fuS6-217" value="" style="endArrow=classic;html=1;rounded=0;exitX=1;exitY=0.25;exitDx=0;exitDy=0;entryX=0.5;entryY=1;entryDx=0;entryDy=0;" edge="1" parent="zbjX_P3OZ4dOYIP-fuS6-140" source="zbjX_P3OZ4dOYIP-fuS6-22" target="zbjX_P3OZ4dOYIP-fuS6-19">
          <mxGeometry width="50" height="50" relative="1" as="geometry">
            <mxPoint x="104" y="234.5" as="sourcePoint" />
            <mxPoint x="140" y="200" as="targetPoint" />
          </mxGeometry>
        </mxCell>
        <mxCell id="zbjX_P3OZ4dOYIP-fuS6-220" value="query-ad-bidword模型" style="text;html=1;strokeColor=none;fillColor=none;align=center;verticalAlign=middle;whiteSpace=wrap;rounded=0;" vertex="1" parent="zbjX_P3OZ4dOYIP-fuS6-140">
          <mxGeometry x="101" y="60" width="166" height="30" as="geometry" />
        </mxCell>
        <mxCell id="zbjX_P3OZ4dOYIP-fuS6-221" value="query-ad模型理解" style="text;html=1;strokeColor=none;fillColor=none;align=center;verticalAlign=middle;whiteSpace=wrap;rounded=0;" vertex="1" parent="zbjX_P3OZ4dOYIP-fuS6-140">
          <mxGeometry x="354" y="60" width="166" height="30" as="geometry" />
        </mxCell>
        <mxCell id="zbjX_P3OZ4dOYIP-fuS6-181" style="edgeStyle=orthogonalEdgeStyle;rounded=0;orthogonalLoop=1;jettySize=auto;html=1;" edge="1" parent="WIyWlLk6GJQsqaUBKTNV-1" source="zbjX_P3OZ4dOYIP-fuS6-173" target="zbjX_P3OZ4dOYIP-fuS6-57">
          <mxGeometry relative="1" as="geometry">
            <Array as="points">
              <mxPoint x="552" y="175" />
            </Array>
          </mxGeometry>
        </mxCell>
        <mxCell id="zbjX_P3OZ4dOYIP-fuS6-182" style="edgeStyle=orthogonalEdgeStyle;rounded=0;orthogonalLoop=1;jettySize=auto;html=1;" edge="1" parent="WIyWlLk6GJQsqaUBKTNV-1" source="zbjX_P3OZ4dOYIP-fuS6-173">
          <mxGeometry relative="1" as="geometry">
            <mxPoint x="801" y="210" as="targetPoint" />
          </mxGeometry>
        </mxCell>
        <mxCell id="zbjX_P3OZ4dOYIP-fuS6-190" style="edgeStyle=orthogonalEdgeStyle;rounded=0;orthogonalLoop=1;jettySize=auto;html=1;entryX=0;entryY=0.5;entryDx=0;entryDy=0;" edge="1" parent="WIyWlLk6GJQsqaUBKTNV-1" source="zbjX_P3OZ4dOYIP-fuS6-43" target="zbjX_P3OZ4dOYIP-fuS6-129">
          <mxGeometry relative="1" as="geometry" />
        </mxCell>
        <mxCell id="zbjX_P3OZ4dOYIP-fuS6-191" style="edgeStyle=orthogonalEdgeStyle;rounded=0;orthogonalLoop=1;jettySize=auto;html=1;entryX=1;entryY=0.5;entryDx=0;entryDy=0;" edge="1" parent="WIyWlLk6GJQsqaUBKTNV-1" source="zbjX_P3OZ4dOYIP-fuS6-43" target="zbjX_P3OZ4dOYIP-fuS6-130">
          <mxGeometry relative="1" as="geometry">
            <mxPoint x="830" y="720" as="targetPoint" />
            <Array as="points">
              <mxPoint x="880" y="926" />
              <mxPoint x="880" y="770" />
            </Array>
          </mxGeometry>
        </mxCell>
        <mxCell id="zbjX_P3OZ4dOYIP-fuS6-214" value="" style="endArrow=classic;html=1;rounded=0;exitX=0.5;exitY=0;exitDx=0;exitDy=0;" edge="1" parent="WIyWlLk6GJQsqaUBKTNV-1" source="zbjX_P3OZ4dOYIP-fuS6-3">
          <mxGeometry width="50" height="50" relative="1" as="geometry">
            <mxPoint x="-236" y="364.5" as="sourcePoint" />
            <mxPoint x="-200" y="320" as="targetPoint" />
          </mxGeometry>
        </mxCell>
        <mxCell id="zbjX_P3OZ4dOYIP-fuS6-216" value="" style="endArrow=classic;html=1;rounded=0;exitX=0.5;exitY=0;exitDx=0;exitDy=0;" edge="1" parent="WIyWlLk6GJQsqaUBKTNV-1" source="zbjX_P3OZ4dOYIP-fuS6-5">
          <mxGeometry width="50" height="50" relative="1" as="geometry">
            <mxPoint x="-150" y="360" as="sourcePoint" />
            <mxPoint x="-110" y="320" as="targetPoint" />
          </mxGeometry>
        </mxCell>
        <mxCell id="zbjX_P3OZ4dOYIP-fuS6-218" value="" style="endArrow=classic;html=1;rounded=0;exitX=0.5;exitY=0;exitDx=0;exitDy=0;" edge="1" parent="WIyWlLk6GJQsqaUBKTNV-1" source="zbjX_P3OZ4dOYIP-fuS6-14">
          <mxGeometry width="50" height="50" relative="1" as="geometry">
            <mxPoint x="-186" y="317" as="sourcePoint" />
            <mxPoint x="-160" y="270" as="targetPoint" />
          </mxGeometry>
        </mxCell>
        <mxCell id="zbjX_P3OZ4dOYIP-fuS6-224" style="edgeStyle=orthogonalEdgeStyle;rounded=0;orthogonalLoop=1;jettySize=auto;html=1;exitX=0.5;exitY=0;exitDx=0;exitDy=0;" edge="1" parent="WIyWlLk6GJQsqaUBKTNV-1" source="zbjX_P3OZ4dOYIP-fuS6-222">
          <mxGeometry relative="1" as="geometry">
            <mxPoint x="911" y="460" as="targetPoint" />
            <Array as="points">
              <mxPoint x="960" y="460" />
            </Array>
          </mxGeometry>
        </mxCell>
      </root>
    </mxGraphModel>
  </diagram>
</mxfile>
